<?xml version="1.0" standalone="no"?><!DOCTYPE svg PUBLIC "-//W3C//DTD SVG 1.1//EN" "http://www.w3.org/Graphics/SVG/1.1/DTD/svg11.dtd"><svg t="1751293980661" class="icon" viewBox="0 0 1024 1024" version="1.1" xmlns="http://www.w3.org/2000/svg" p-id="7038" xmlns:xlink="http://www.w3.org/1999/xlink" width="200" height="200"><path d="M513.911467 61.098667L614.4 136.533333h68.266667L783.223467 61.166933a22.528 22.528 0 0 1 35.976533 17.954134V307.2c0 49.288533-35.6352 80.827733-68.266667 107.383467V682.666667l54.613334 163.84 48.196266 24.098133a61.0304 61.0304 0 0 1 33.723734 54.613333c0 16.861867-13.653333 30.5152-30.5152 30.5152H290.133333C205.960533 955.733333 136.533333 887.466667 136.533333 799.607467c0-148.138667 30.9248-258.2528 50.858667-332.322134 9.966933-37.0688 19.797333-64.853333 26.8288-84.036266 3.959467-10.717867 7.850667-20.6848 13.1072-30.651734 30.651733-58.368 119.057067-14.336 91.613867 45.602134a430.830933 430.830933 0 0 0-9.079467 21.640533c-6.212267 15.837867-14.609067 40.482133-23.620267 74.001067-16.7936 62.464-35.4304 156.125867-43.349333 282.146133 25.122133-140.629333 165.341867-281.8048 278.3232-382.907733-23.552-22.254933-43.281067-49.152-43.281067-85.879467V79.0528c0-18.432 21.162667-29.013333 35.976534-17.954133z" p-id="7039" fill="#ea986c"></path></svg>